<?xml version="1.0" encoding="UTF-8"?>
<svg width="22px" height="22px" viewBox="0 0 22 22" version="1.1" xmlns="http://www.w3.org/2000/svg" xmlns:xlink="http://www.w3.org/1999/xlink">
    <!-- Generator: Sketch 63.1 (92452) - https://sketch.com -->
    <title>icon/form/check</title>
    <desc>Created with Sketch.</desc>
    <g id="icon/form/check" stroke="none" stroke-width="1" fill="none" fill-rule="evenodd">
        <path d="M11,0 C17.0751322,0 22,4.92486775 22,11 C22,17.0751322 17.0751322,22 11,22 C4.92486775,22 0,17.0751322 0,11 C0,4.92486775 4.92486775,0 11,0 Z M16.8750611,7.15414443 C16.5195872,6.78195186 15.9432501,6.78195186 15.5877762,7.15414443 L15.5877762,7.15414443 L9.67404607,13.3460096 L6.77889011,10.3146884 C6.42341621,9.94249585 5.84707915,9.94249585 5.49160525,10.3146884 C5.13613135,10.686881 5.13613135,11.2903244 5.49160525,11.662517 L5.49160525,11.662517 L9.67404607,16.0416667 L16.8750611,8.50197297 C17.230535,8.1297804 17.230535,7.52633701 16.8750611,7.15414443 Z" id="Combined-Shape" fill="#FF9500"></path>
    </g>
</svg>