<?xml version="1.0" encoding="UTF-8"?>
<svg width="18px" height="18px" viewBox="0 0 18 18" version="1.1" xmlns="http://www.w3.org/2000/svg" xmlns:xlink="http://www.w3.org/1999/xlink">
    <!-- Generator: Sketch 63.1 (92452) - https://sketch.com -->
    <title>icon/input/blind</title>
    <desc>Created with Sketch.</desc>
    <g id="icon/input/blind" stroke="none" stroke-width="1" fill="none" fill-rule="evenodd">
        <path d="M4.05025253,2.63603897 L15.363961,13.9497475 C15.7544853,14.3402718 15.7544853,14.9734367 15.363961,15.363961 C14.9734367,15.7544853 14.3402718,15.7544853 13.9497475,15.363961 L12.1086941,13.5229789 C11.1086627,13.8375625 10.0707619,14 9.01405518,14 C5.67829256,14 2.52993233,12.381295 0.168662155,9.43165468 C-0.0562207184,9.17985612 -0.0562207184,8.82014388 0.168662155,8.56834532 C1.27002648,7.19254825 2.54262681,6.10630385 3.92561026,5.33881335 L2.63603897,4.05025253 C2.24551468,3.65972824 2.24551468,3.02656326 2.63603897,2.63603897 C3.02656326,2.24551468 3.65972824,2.24551468 4.05025253,2.63603897 Z M1.74284227,9 C3.72930765,11.3021583 6.3154607,12.5611511 9.01405518,12.5611511 C9.66185466,12.5611511 10.3031748,12.4886025 10.9312756,12.3464907 L10.2926239,11.7068727 C9.90095503,11.89472 9.46250951,12 9,12 C7.34615385,12 6,10.6538462 6,9 C6,8.53749049 6.10527999,8.09904497 6.29312735,7.70737606 L5.00398093,6.41682089 C3.82252113,7.01778922 2.72135641,7.88697891 1.74284227,9 Z M9.01405518,4 C12.3498178,4 15.498178,5.61870504 17.8594482,8.56834532 C18.0468506,8.82014388 18.0468506,9.17985612 17.8594482,9.4676259 C17.08731,10.4203992 16.2310085,11.2347022 15.3115124,11.8992151 L14.2606424,10.8471239 C14.984228,10.3378281 15.66407,9.71992005 16.2852681,9 C14.2988027,6.69784173 11.7126497,5.43884892 9.01405518,5.43884892 L8.8540406,5.44032607 L8.8540406,5.44032607 L7.52314122,4.10895172 C8.01450844,4.03664396 8.51216062,4 9.01405518,4 Z M9.44892112,6.03353571 C10.7442191,6.22883474 11.7711653,7.25578091 11.9664643,8.55107888 L9.44892112,6.03353571 Z" id="Combined-Shape" fill="#BDBDBD"></path>
    </g>
</svg>