<?xml version="1.0" encoding="UTF-8"?>
<svg width="18px" height="18px" viewBox="0 0 18 18" version="1.1" xmlns="http://www.w3.org/2000/svg" xmlns:xlink="http://www.w3.org/1999/xlink">
    <!-- Generator: Sketch 63.1 (92452) - https://sketch.com -->
    <title>icon/input/see</title>
    <desc>Created with Sketch.</desc>
    <g id="icon/input/see" stroke="none" stroke-width="1" fill="none" fill-rule="evenodd">
        <path d="M9.01405518,4 C12.3498178,4 15.498178,5.61870504 17.8594482,8.56834532 C18.0468506,8.82014388 18.0468506,9.17985612 17.8594482,9.4676259 C15.498178,12.381295 12.3498178,14 9.01405518,14 C5.67829256,14 2.52993233,12.381295 0.168662155,9.43165468 C-0.0562207184,9.17985612 -0.0562207184,8.82014388 0.168662155,8.56834532 C2.52993233,5.61870504 5.67829256,4 9.01405518,4 Z M9.01405518,5.43884892 C6.3154607,5.43884892 3.76678813,6.69784173 1.74284227,9 C3.72930765,11.3021583 6.3154607,12.5611511 9.01405518,12.5611511 C11.7126497,12.5611511 14.2988027,11.3021583 16.2852681,9 C14.2988027,6.69784173 11.7126497,5.43884892 9.01405518,5.43884892 Z M9,6 C10.6538462,6 12,7.34615385 12,9 C12,10.6538462 10.6538462,12 9,12 C7.34615385,12 6,10.6538462 6,9 C6,7.34615385 7.34615385,6 9,6 Z M7.84615385,7.26923077 C7.38461538,7.26923077 7.03846154,7.65384615 7.03846154,8.07692308 C7.03846154,8.53846154 7.42307692,8.88461538 7.84615385,8.88461538 C8.26923077,8.88461538 8.61538462,8.53846154 8.65384615,8.07692308 C8.65384615,7.61538462 8.26923077,7.26923077 7.84615385,7.26923077 Z" id="Combined-Shape" fill="#FF9500"></path>
    </g>
</svg>