<svg version="1.2" xmlns="http://www.w3.org/2000/svg" xmlns:xlink="http://www.w3.org/1999/xlink" overflow="visible" preserveAspectRatio="none" viewBox="0 0 24 24" width="30" height="30"><g><path xmlns:default="http://www.w3.org/2000/svg" id="credit-card" d="M20.33,4H3.67C3.23,3.99,2.8,4.17,2.49,4.49C2.17,4.8,1.99,5.23,2,5.67v12.66  c-0.01,0.44,0.17,0.87,0.49,1.18c0.31,0.32,0.74,0.5,1.18,0.49h16.66c0.92,0,1.67-0.75,1.67-1.67l0,0V5.67C22,4.75,21.25,4,20.33,4  L20.33,4L20.33,4z M3.67,5.34h16.66c0.18,0.01,0.32,0.15,0.33,0.33V8H3.34V5.67C3.35,5.49,3.49,5.35,3.67,5.34  C3.67,5.34,3.67,5.34,3.67,5.34z M20.33,18.66H3.67c-0.18-0.01-0.32-0.15-0.33-0.33V12h17.32v6.33  C20.65,18.51,20.51,18.65,20.33,18.66L20.33,18.66z M7.33,17.33V16H4.67v1.33h2.67H7.33z M12.66,17.33V16h-4v1.33H12.66z" style="fill: rgb(92, 92, 92);" vector-effect="non-scaling-stroke"/></g></svg>