<svg xmlns="http://www.w3.org/2000/svg" viewBox="0 0 400 150"><defs><style>.cls-1{fill:#007cc5;}.cls-2{fill:#1ba035;}.cls-3{fill:#e4007f;}.cls-4{fill:#f7b146;}</style></defs><title>screen-KV</title><path style="fill: rgb(0, 0, 0);" d="M310.8,103a7.74,7.74,0,0,0-.84,1.36,22.34,22.34,0,0,0-2.13-1.12,10.35,10.35,0,0,0-12.34,3.32c-2.83,4-2.69,10.38.3,13.86a10.3,10.3,0,0,0,12.73,2.51l1.44-.79s.38.79.57,1.12a1.92,1.92,0,0,0,2.46.66,2,2,0,0,0,1.37-2.16c0-2.68.09-5.35.13-8,0-2.94.05-5.87-.13-8.79C314.22,102.65,312.23,101.57,310.8,103Zm-6.73,17.59c-3.33.06-6.16-3.51-6-7.62.12-3.87,2.52-6.71,5.68-6.72,3.7,0,6.21,2.76,6.25,6.91S307.5,120.53,304.07,120.59Z"/><path style="fill: rgb(0, 0, 0);" d="M293.55,95.65c-1.9-.3-2.69.86-3,2.59-.68,4.13-1.41,8.26-2.16,12.37-.42,2.31-.92,4.59-1.39,6.89-2.26-4-4-8-5.8-11.92-.64-1.39-1-3.18-3.12-3.12-1.94.05-2.32,1.7-2.93,3-1.83,4-3.6,8.07-5.39,12.11l-.57-.12c-1.18-6.5-2.37-13-3.52-19.5-.33-1.84-1.34-2.69-3.16-2.31s-1.67,1.82-1.4,3.19q2.19,10.83,4.41,21.66c.37,1.77.91,3.55,3.14,3.69,2,.13,3.13-1.07,3.91-2.89,1.66-3.89,3.5-7.71,5.31-11.68a6.34,6.34,0,0,1,1.86,3c1.56,3.25,3.06,6.52,4.57,9.78.68,1.45,1.83,1.77,3.33,1.62a2.83,2.83,0,0,0,2.83-2.37c1.56-7.55,3.12-15.09,4.62-22.64C295.38,97.62,295.58,96,293.55,95.65Z"/><path style="fill: rgb(0, 0, 0);" d="M217.46,103a8.42,8.42,0,0,0-.84,1.36,23.06,23.06,0,0,0-2.12-1.12,10.34,10.34,0,0,0-12.34,3.32c-2.84,4-2.7,10.38.29,13.86a10.3,10.3,0,0,0,12.73,2.51c.61-.32,1.44-.79,1.44-.79s.38.79.57,1.12a1.92,1.92,0,0,0,2.46.66,2,2,0,0,0,1.37-2.16c0-2.68.09-5.35.13-8,0-2.94,0-5.87-.13-8.79C220.88,102.65,218.9,101.57,217.46,103Zm-6.73,17.59c-3.33.06-6.16-3.51-6-7.62.11-3.87,2.52-6.71,5.67-6.72,3.71,0,6.22,2.76,6.25,6.91S214.16,120.53,210.73,120.59Z"/><path style="fill: rgb(0, 0, 0);" d="M348.26,103.43a10.54,10.54,0,0,0-11.39,1.14c-4.73,3.67-5.52,11.72-1.83,16,4.07,4.79,13.1,4.07,17.12,1a2.17,2.17,0,0,0,.62-3.11c-.73-1.07-1.78-.69-2.68-.13a13.91,13.91,0,0,1-5.05,2.12c-2.4.41-5.58-.74-6.77-3a9.89,9.89,0,0,1-.6-2.6l13.86-.06c1.56,0,2.25-.71,2.23-2.31C353.71,108.41,352,105.16,348.26,103.43Zm-.61,8.22h-8.93c-.2,0-.87-.12-1,0a10,10,0,0,1,.38-2.29,5.32,5.32,0,0,1,5.44-3.15c2.41.14,4.94,1.89,5.47,3.72C349.34,111.21,348.83,111.66,347.65,111.65Z"/><path style="fill: rgb(0, 0, 0);" d="M198,120.19c-1.68-.07-3.35,0-5,0h-5.36c.07,0,0-8.33,0-8.33s3.15,0,4.64,0,3,0,4.53-.09c1.19-.06,2.16-.62,2.11-2s-1-1.62-2.11-1.66-2.18,0-3.26,0c-3.55,0-5.83.12-5.83.12s0-8.54,0-8.54,1.56-.07,2.41,0c2.42.14,4.85.08,7.27.08,1.33,0,2.64-.19,2.66-1.93s-1.24-2-2.58-2.06c-3.77,0-7.53,0-11.3,0-1.93,0-2.89,1-2.87,3,0,.44,0,.88,0,1.32,0,1.52,0,3,0,4.57,0,.7,0,1.4,0,2.09,0,1,0,2,0,3q0,5.65-.14,11.31c0,1.71.59,2.84,2.37,2.87,4.18.06,8.37,0,12.55,0,1.09,0,2-.48,2.08-1.73S199.22,120.23,198,120.19Z"/><path style="fill: rgb(0, 0, 0);" d="M258,102.61c-1.83-.56-2.67.69-3.25,2.29-1.39,3.85-2.9,7.66-4.57,12-1.68-4.33-3.17-8.14-4.64-12-.6-1.58-1.34-3.14-3.4-2.35s-1.32,2.39-.75,3.82c1.68,4.28,3.33,8.58,5.1,12.83a7.56,7.56,0,0,1-.16,7,14.24,14.24,0,0,0-1,2.3c-.44,1.29-1,2.81.75,3.44s2.9-.41,3.51-2q4.66-11.92,9.27-23.88C259.39,104.82,260,103.22,258,102.61Z"/><path style="fill: rgb(0, 0, 0);" d="M234.76,112.29c-1.93-.8-3.9-1.5-5.81-2.34-.75-.34-1.53-.92-1.37-1.9a2.3,2.3,0,0,1,1.72-1.67c2.23-.81,4,.14,5.89,1.26,1.16.71,2.52.89,3.34-.41s-.14-2.38-1.2-3.15c-3-2.2-9.4-2.13-12.41.1-3.23,2.41-3,6.35.35,8.44,2.38,1.46,5.11,2.08,7.57,3.35.89.46,1.91.83,1.8,2.12s-1,1.61-2,2c-2.82,1.26-5-.42-7.29-1.55-1.16-.57-2.45-1.2-3.29.3s0,2.54,1.24,3.39a11.44,11.44,0,0,0,7.19,1.66c.76,0,1.51,0,2.26,0,3.53-.3,6.1-2.34,6.59-5.18C239.9,115.64,238.65,113.88,234.76,112.29Z"/><path style="fill: rgb(0, 0, 0);" d="M369.31,44a14.81,14.81,0,0,0-3.26-.09,17.11,17.11,0,0,1-2.73-.06s-.12-1.86-.08-2.66c.13-2.33,0-4.69,0-7a2.53,2.53,0,0,0-2.7-2.7c-1.76,0-2.5,1.1-2.5,2.78,0,2.26-.13,4.53,0,6.78.06.83,0,2.83,0,2.83s-1.47.1-2.85.08c-7-.11-13.91,0-20.86,0a35.91,35.91,0,0,0-4,.11A2.45,2.45,0,0,0,328,46.63a2.27,2.27,0,0,0,2.29,2.48,23.31,23.31,0,0,0,2.51.07h22.62c.78,0,2.57.11,2.57.11s0,.94,0,1.73c0,8.46.07,16.92-.09,25.38a6.5,6.5,0,0,1-4.68,6.23c-4.57,1.6-8.71-1.58-9-6.86-.1-2.09,0-4.19-.1-6.28a2.3,2.3,0,0,0-2.27-2.27c-1.3-.13-2.61.4-2.7,1.7-.3,4.47-1.13,9.09,1.22,13.28a11.89,11.89,0,0,0,13.65,6,12.19,12.19,0,0,0,9.2-11.78c.09-4,0-8,0-12.07h0v-9c0-3,.23-5.77.23-5.77s2.76-.19,5.58-.34c1.65-.09,2.81-.63,2.89-2.42S370.86,44.24,369.31,44Z"/><path style="fill: rgb(0, 0, 0);" d="M325,50.72c-.07-5.6,3.67-10,6.29-14.62,1-1.7.93-3.32-.95-4.28s-3.13.08-4,1.79a63.82,63.82,0,0,1-16,19.8c-1.75,1.45-2.13,3.33-.89,4.56,1.55,1.53,3.11.84,4.47-.33,1.83-1.57,3.58-3.25,5.72-5.22.06,1.07.12,1.72.12,2.37V83.94a10.32,10.32,0,0,0,0,1.76,2.58,2.58,0,0,0,5.09.18,12.56,12.56,0,0,0,.16-2.75C325,72.33,325.12,61.52,325,50.72Z"/><path style="fill: rgb(0, 0, 0);" d="M335.51,67.79c1.62-1.8,3.36-3.5,4.92-5.35.91-1.08,1.48-.93,2.32,0,1.65,1.89,3.38,3.71,5.12,5.51a3.09,3.09,0,0,0,3.65.87A2.5,2.5,0,0,0,353,66.42,3.67,3.67,0,0,0,351.8,64c-2.47-2.71-4.92-5.45-7.4-8.16-2-2.16-3.35-2.2-5.46,0-2.61,2.71-5.13,5.5-7.67,8.27-1.3,1.41-1.74,3.06-.16,4.4S334.2,69.25,335.51,67.79Z"/><path style="fill: rgb(0, 0, 0);" d="M364.38,102.33a11.32,11.32,0,0,0-1.72,0s.06-1.62,0-2a25.08,25.08,0,0,0-.14-3,1.89,1.89,0,0,0-2.09-1.74,2,2,0,0,0-2.23,1.61,7.89,7.89,0,0,0-.18,2c.05.88.05,3.26.05,3.26s-1.33,0-2.4.17a1.67,1.67,0,0,0-1.46,1.78,1.41,1.41,0,0,0,1.45,1.45c.81,0,2.44.1,2.44.1s-.09,2-.1,3c0,4.18,0,8.37,0,12.55a2.21,2.21,0,0,0,2.41,2.54c1.7.06,2.18-1,2.2-2.4,0-2.26,0-4.52,0-6.78h.05c0-2.09,0-4.19,0-6.28,0-.77.07-2.62.07-2.62s1.29,0,1.93,0c1.06-.11,1.76-.45,1.72-1.72S365.42,102.45,364.38,102.33Z"/><path style="fill: rgb(0, 0, 0);" d="M260.94,74.16c-.86,2,0,3.93,1.73,4.24s2.64-1,3.3-2.42c2.77-6.16,3.57-12.78,4.13-19.44.06-.72.16-1.44.29-2.15.09-.46.07-1.55.7-1.54,1.52,0,3,.14,4.56.2,0,0-.11,2.27-.19,3.16-.57,6.76-1.08,13.53-2.93,20.11-.52,1.81-.31,3.46,1.88,3.92s2.84-1.17,3.23-2.75a120.21,120.21,0,0,0,3.15-26.39,3.15,3.15,0,0,0-1.18-2.9c-1.14-.72-2.6-.39-3.87-.38-.82,0-1.65,0-2.47.09a8.9,8.9,0,0,1-2.58-.06c-.07,0-.08-2.42-.08-2.66a7.71,7.71,0,0,1,.05-1.86c0-.31,4.67-.11,5.23-.11,1.7,0,3.33-.81,3.38-2.69.07-2.51.13-5,0-7.54-.08-1.52-.8-2.84-2.62-2.76s-2.36,1.27-2.5,2.89c-.19,2.27-.3,5.09-.3,5.09a4.57,4.57,0,0,0-1.28,0h-2.76c-1.95,0-3.9,0-5.85,0l-1,0a2.19,2.19,0,0,0-2.29,2.21,2.09,2.09,0,0,0,2,2.46c1.14,0,2.88.13,2.88.13s0,2.37,0,3.54C265.2,56,264.71,65.34,260.94,74.16Z"/><path style="fill: rgb(0, 0, 0);" d="M248.47,59a10.37,10.37,0,0,0,2,0l3,0s0,2.08,0,3.19c-.07,3.43-.11,6.87,0,10.3.14,4.33-.71,8-5.23,9.85a2.49,2.49,0,0,0-1.44,3.54c.74,1.54,2.18,1.72,3.68,1.21A11.58,11.58,0,0,0,255.32,84a14.76,14.76,0,0,1,1.43-1.22l1.34,1a19.1,19.1,0,0,0,11.83,3.5c4.86,0,9.72,0,14.58,0v0c5.53,0,11.06,0,16.59,0,1.92,0,3.73-.37,3.65-2.75-.07-2.16-1.67-2.53-3.59-2.52-10.3.07-20.61,0-30.91.06a17.82,17.82,0,0,1-6.63-1.24c-3.49-1.38-4.85-3.38-4.87-7,0-4.53,0-9,0-13.58-.06-3.59-1.7-5.81-4.68-6.19a39.08,39.08,0,0,0-5.52-.09,2.31,2.31,0,0,0-2.5,2.54A2.39,2.39,0,0,0,248.47,59Z"/><path style="fill: rgb(0, 0, 0);" d="M299.57,63.87a16.34,16.34,0,0,0,2.22-.22c1.2-.23,2.26-.77,2.38-2.16a2.47,2.47,0,0,0-1.73-2.75,7.38,7.38,0,0,0-2.09-.24l-3.26-.12a10.49,10.49,0,0,1,.22-3.62,18.41,18.41,0,0,1,1.46-2.91c.72-1.31,1.61-2.55,2.22-3.92.9-2,.09-3.32-2.13-3.74A31.84,31.84,0,0,0,292.1,44c-1.93,0-3.85-.07-5.77,0-1.69.09-3.28.52-3.11,2.73.15,2,1.67,2.27,3.27,2.29q3,0,6,0c1.22,0,1.56.43.81,1.47a7.18,7.18,0,0,0-1.2,4.1c0,.73,0,1.46,0,2.18a11,11,0,0,0,0,1.63,21,21,0,0,0-2.24,0l-3.65.06q-1.38,0-2.76.15c-1.52.13-2.09,1.21-2,2.68a2.14,2.14,0,0,0,2.2,2.25c2.77.11,5.48,0,8.42.12,0,0-.08,2.35-.07,4.9s-.11,5.64-.11,5.64a39.87,39.87,0,0,0-5.12.22c-1.53.18-2.57.87-2.62,2.48a2.4,2.4,0,0,0,2.65,2.67c2,.06,4,.09,6,0,2.59-.11,4-1.52,4.05-4.15.07-2.09,0-4.18,0-6.28,0-2.55.22-5.25.22-5.26Z"/><path style="fill: rgb(0, 0, 0);" d="M283.81,41.45c2.92.09,5.84,0,8.76,0v0c2.59,0,5.18,0,7.77,0,1.88,0,3.78-.27,3.86-2.57s-1.86-2.61-3.73-2.62c-3.34,0-6.68-.06-10,0l-2.81,0s.57-1.43,1-2.45a2.37,2.37,0,0,0-1.24-3.37,2.58,2.58,0,0,0-3.58,1.34,54.88,54.88,0,0,0-2.65,5.66C280.32,39.75,281.45,41.38,283.81,41.45Z"/><path style="fill: rgb(0, 0, 0);" d="M251.16,40c.83.66,2.36,2,2.36,2s-1.31,1.26-2.22,2A30.66,30.66,0,0,0,248,47.32a2.23,2.23,0,0,0-.28,2.79,2.7,2.7,0,0,0,2.49,1.37,4.31,4.31,0,0,0,1.41-.54,59.63,59.63,0,0,0,7.68-7.56,2.37,2.37,0,0,0-.24-3.24c-2.26-2.35-4.56-4.68-7-6.89a2.7,2.7,0,0,0-4.05.09c-1.27,1.29-.71,2.64.32,3.8A23.72,23.72,0,0,0,251.16,40Z"/><path style="fill: rgb(0, 0, 0);" d="M331,110c0-3.6,0-7.2,0-10.8,0-1.58.23-3.45-2.12-3.51s-2.19,1.8-2.2,3.4c0,7.28,0,14.57,0,21.85,0,1.62.05,3.3,2.07,3.33S331,122.66,331,121q0-5.54,0-11.05Z"/><path style="fill: rgb(0, 0, 0);" d="M319.82,95.64c-1.82,0-2.15,1.26-2.15,2.74q0,11.45,0,22.88c0,1.48.36,2.76,2.16,2.76s2.15-1.28,2.15-2.76V98.38C322,96.89,321.64,95.64,319.82,95.64Z"/><path style="fill: rgb(0, 0, 0);" d="M201.87,65.74c4.77-1,9.55-2,13.79-4.51a2.61,2.61,0,0,1,3.17.06,42.55,42.55,0,0,0,13,5.06c1.89.43,3.62.31,4.25-1.9.49-1.72-.87-3.07-3.42-3.37-3-.34-5.6-1.68-8.3-2.78-1.69-.69-1.68-1.62-.33-2.75,1.8-1.5,3.64-3,5.31-4.6,2-1.93,3.88-4,4.71-6.71,1-3.42-.47-5.55-4-6s-7.2-.18-10.8-.31-7.13.44-10.74-.09c.24-1.38,1.23-2.14,1.8-3.15.88-1.56.94-2.94-.66-3.91s-3.06-.46-4.06,1.15c-1.22,2-2.45,4-3.63,6-2.12,3.63-1,5.46,3.23,5.5h23.26a47.62,47.62,0,0,1-10.24,9.78c-1,.72-1.69.26-2.42-.42a45,45,0,0,1-6.06-6.35c-1.06-1.47-2.41-2.67-4.2-1.41s-1.08,3.08-.05,4.63a39,39,0,0,0,5.65,6c1,.94.86,1.34-.32,1.91a40.76,40.76,0,0,1-9.84,2.9c-1.65.32-3,1-2.72,2.91S200.05,66.11,201.87,65.74Z"/><path style="fill: rgb(0, 0, 0);" d="M227.29,81.79c.11-2.76.09-5.53,0-8.29s-1.51-4.39-4.36-4.45c-5.11-.11-10.22,0-15.32,0-2.21,0-3,1.21-2.62,3.27a32.78,32.78,0,0,0,2.57,7.06,2.4,2.4,0,0,0,3.19,1.25c3-.91,1-4.22.62-6.19,0,.15,5.67,0,6.24,0,1.52,0,2.94-.06,4.47,0,.47,0-.12,7.63,0,7.63H203.33c-1.9,0-3.8-.05-5.7,0,0,0,0-1.31,0-1.5l0-2.89c0-2.76,0-5.51,0-8.27,0-.33,0-.65,0-1,0-1.82-.78-3.19-2.75-3.22s-2.42,1.47-2.42,3.12c0,4.52-.09,9,0,13.56.09,3.51,2.08,5.35,5.6,5.4,3.93,0,7.87,0,11.8,0s7.87.06,11.81,0C225.23,87.16,227.16,85.27,227.29,81.79Z"/><path style="fill: rgb(0, 0, 0);" d="M182.8,47.87c0,1.88.06,2.7.07,3.68,0,3.93,0,7.87,0,11.81a2.37,2.37,0,0,0,2.47,2.6C187,66,187.81,65,188,63.49a21.33,21.33,0,0,0,.07-2.26c0-5.19-.48-16.69-.47-16.73a26.58,26.58,0,0,1,1.89-4.43c1.12-1.88,2.36-3.71,3.34-5.67.71-1.39.81-2.85-.82-3.69s-2.8-.3-3.74,1.29A53,53,0,0,1,179,43.86c-1,1-2.12,1.9-3.08,3a2.44,2.44,0,0,0-.21,3.43,2.57,2.57,0,0,0,3.62.46C180.39,50.05,181.67,48.76,182.8,47.87Z"/><path style="fill: rgb(0, 0, 0);" d="M192.47,50c0,2.93,0,5.86,0,8.78,0,1.63.65,2.84,2.45,2.84a2.49,2.49,0,0,0,2.67-2.71c0-5.93.07-11.87,0-17.8,0-1.62-.82-3-2.76-2.89-1.78.12-2.33,1.42-2.33,3C192.45,44.14,192.46,47.07,192.47,50Z"/><path style="fill: rgb(0, 0, 0);" d="M233.33,70.21a2.44,2.44,0,0,0-3.07-1c-1.23.37-1.55,1.4-1.57,3,.33,1,.74,2.35,1.24,3.67,1,2.65,2.17,5.25,3.11,7.93.66,1.87,1.75,3,3.73,2.27s1.95-2.42,1.38-4c-1.16-3.22-2.5-6.37-3.78-9.54A16.65,16.65,0,0,0,233.33,70.21Z"/><path style="fill: rgb(0, 0, 0);" d="M184.92,83.92a25,25,0,0,0,2.94-11.82c.07-1.57-.36-2.85-2.19-3s-2.76.78-3,2.59c-.35,3.33-.72,6.67-2.52,9.62-1,1.69-1.4,3.48.53,4.57S184,85.64,184.92,83.92Z"/><path class="cls-1" style="fill: #007cc5;" d="M58.05,102.52c.3-2.12.21-3.82.41-5.5a54.1,54.1,0,0,1,3.8-14.64,3.29,3.29,0,1,1,6.08,2.51A47.2,47.2,0,0,0,64.76,105a44.54,44.54,0,0,0,1.43,9.61c.45,1.71,1.12,3.51-.48,4.95s-3.36.8-5.1.08a53.21,53.21,0,0,1-26.24-22.5c-.5-.85-1-1.72-1.44-2.57-1.08-2-.67-3.91,1-4.9s3.59-.45,4.71,1.58a53.64,53.64,0,0,0,5,7.79A51,51,0,0,0,52,107.22a9.32,9.32,0,0,0,1,.51c-8.8-19.67-9.83-39.62-4.8-60.08a35.28,35.28,0,0,0-5,6.26A48.94,48.94,0,0,0,36,74a70,70,0,0,0-.21,7.66,3.14,3.14,0,0,1-2,3.17,3.35,3.35,0,0,1-3.58-.61,3,3,0,0,1-1-2.37,53.22,53.22,0,0,1,6.85-29A56.9,56.9,0,0,1,51.68,35.39c6.65-5,14.2-7.74,22.25-9.34L75,25.83a25.92,25.92,0,0,0-6.82-1.14,57.74,57.74,0,0,0-10,.17,3.43,3.43,0,0,1-4.05-2.95,3.51,3.51,0,0,1,3.45-3.62,59.47,59.47,0,0,1,34,6.49c.86.45,1.71,1,2.53,1.5,2.73,1.78,2.61,4.58-.2,6.19a71.34,71.34,0,0,0-6.48,4.09,52.35,52.35,0,0,0-9.13,8.53,4.61,4.61,0,0,1-2.41,1.85,3.32,3.32,0,0,1-3.38-5.23,42.38,42.38,0,0,1,5.82-6.23c1.34-1.14,2.64-2.31,4.25-3.72a46.3,46.3,0,0,0-9,1.06,47.56,47.56,0,0,0-13.85,5.3,3.69,3.69,0,0,0-1.63,1.81A77.93,77.93,0,0,0,52.1,63.41a81.73,81.73,0,0,0,3,31.63A44,44,0,0,0,58.05,102.52Z"/><path class="cls-2" style="fill:#1ba035;" d="M149.17,62.25a26.06,26.06,0,0,0-5.61-4.91,50.55,50.55,0,0,0-16.69-8.23c-.31-.09-1.54-.57-1.22-.06s.33.72.52,1.06A51.83,51.83,0,0,1,132.64,73a53.4,53.4,0,0,1-5.82,27.08c-.7,1.38-1.5,2.74-3.29,2.82-3,.14-4.6-2.5-3.1-5.27A47.39,47.39,0,0,0,125,85.26a44.33,44.33,0,0,0-1-23,49,49,0,0,0-6.85-13.8A3.21,3.21,0,0,0,114.41,47,52.65,52.65,0,0,0,90.6,51.63,52.08,52.08,0,0,0,68.89,69.68,10.38,10.38,0,0,1,67,72a3,3,0,0,1-3.69.2,3.12,3.12,0,0,1-1.45-3.44,5.9,5.9,0,0,1,1-2.26A60,60,0,0,1,80.76,49.31a58.21,58.21,0,0,1,25.16-8.56c1.11-.11,2.2-.3,3.57-.49a44.72,44.72,0,0,0-7.83-5.34c-.48-.26-1-.5-1.42-.78a3.32,3.32,0,1,1,3.07-5.89,49.61,49.61,0,0,1,9.9,6.34,34.81,34.81,0,0,1,5.06,4.72,5.27,5.27,0,0,0,3.51,1.87A58.28,58.28,0,0,1,147.29,51.7a2,2,0,0,0,1,.44c-.63-1-1.25-2.09-1.92-3.11s-1.41-2.13-2.18-3.15a72.86,72.86,0,0,0-7.44-8.36c-1.59-1.53-1.83-3.93-.59-5.13,1.39-1.33,3.67-1.14,5.3.41a71.36,71.36,0,0,1,19.13,30.68c.32,1,.6,2,.83,3a3.53,3.53,0,0,1-1,3.79,3.47,3.47,0,0,1-3.89.37,17.43,17.43,0,0,0-11.78-1.18,15.37,15.37,0,0,0-4.94,2.25c-1.82,1.24-4.14,1.07-5.16-.39-1.24-1.77-.74-3.75,1.34-5.17a23,23,0,0,1,11.63-3.8Z"/><path class="cls-3" style="fill:#e4007f;" d="M147.12,107.16c-.69-1.4-2.13-1.43-3.47-1.45a27.26,27.26,0,0,0-10.42,2.39A133.49,133.49,0,0,1,117.09,114a8.86,8.86,0,0,1-9.07-2.16c-2.54-2.38-4.15-5.32-6-8.15a14.92,14.92,0,0,0-4.84-5.27c-.84-.49-1.86-1-2.77-.37s-.47,1.7-.26,2.58c.15.62.42,1.21.62,1.81a50.37,50.37,0,0,0,3.2,6.46,65.76,65.76,0,0,0,9.13,14.22c2.23,2.52,4.45,5.26,8.44,4.89,11.33-1,24-7.38,30.78-16.69C147.26,110.05,147.85,108.66,147.12,107.16Z"/><path class="cls-3" style="fill:#e4007f;" d="M112,72.14A11,11,0,0,0,90,72a10.59,10.59,0,0,0,10.92,11A10.7,10.7,0,0,0,112,72.14Z"/><path class="cls-3" style="fill:#e4007f;" d="M100.24,34.14c.45.28.94.52,1.42.78a44.72,44.72,0,0,1,7.83,5.34c.8.76,7,7.17,7.74,8.2a49,49,0,0,1,6.85,13.8,44.33,44.33,0,0,1,1,23,47.39,47.39,0,0,1-4.61,12.38c-1.5,2.77.06,5.41,3.1,5.27,1.79-.08,2.59-1.44,3.29-2.82A53.4,53.4,0,0,0,132.64,73a51.83,51.83,0,0,0-6.47-22.9,8.76,8.76,0,0,0-.84-1.57c-.11-.18-4.72-7-7.06-9.23a34.81,34.81,0,0,0-5.06-4.72,49.61,49.61,0,0,0-9.9-6.34,3.32,3.32,0,1,0-3.07,5.89Z"/><path class="cls-4" style="fill:#f7b146;" d="M58.05,102.52c.3-2.12.21-3.82.41-5.5a54.1,54.1,0,0,1,3.8-14.64,3.29,3.29,0,1,1,6.08,2.51A47.2,47.2,0,0,0,64.76,105a44.54,44.54,0,0,0,1.43,9.61c.45,1.71,1.12,3.51-.48,4.95s-3.36.8-5.1.08a53.21,53.21,0,0,1-26.24-22.5c-.5-.85-1-1.72-1.44-2.57-1.08-2-.67-3.91,1-4.9s3.59-.45,4.71,1.58a53.64,53.64,0,0,0,5,7.79A51,51,0,0,0,52,107.22a9.32,9.32,0,0,0,1,.51c-8.8-19.67-11-39.94-4.8-60.08a91,91,0,0,1,5.28-12c3.07-4.94,7.66-2.6,5.77,2a17.45,17.45,0,0,0-1.17,2.26A77.93,77.93,0,0,0,52.1,63.41a81.73,81.73,0,0,0,3,31.63A44,44,0,0,0,58.05,102.52Z"/></svg>