<?xml version="1.0" encoding="UTF-8"?>
<svg width="135px" height="135px" viewBox="0 0 135 135" version="1.1" xmlns="http://www.w3.org/2000/svg" xmlns:xlink="http://www.w3.org/1999/xlink">
    <title>Shape</title>
    <g id="Parkey" stroke="none" stroke-width="1" fill="none" fill-rule="evenodd">
        <g id="Done" transform="translate(-120.000000, -267.000000)" fill="#D7D6D5" fill-rule="nonzero">
            <path d="M187.500986,402 C160.200184,402 135.587594,385.554393 125.140029,360.331741 C114.692465,335.109088 120.467394,306.076559 139.771976,286.771976 C159.076559,267.467394 188.109088,261.692465 213.331741,272.140029 C238.554393,282.587594 255,307.200184 255,334.500986 C254.948373,371.758257 224.758257,401.948373 187.500986,402 Z M187.500986,276.374666 C155.398706,276.374666 129.374666,302.398706 129.374666,334.500986 C129.374666,366.603267 155.398706,392.627307 187.500986,392.627307 C219.603267,392.627307 245.627307,366.603267 245.627307,334.500986 C245.592868,302.412982 219.588991,276.409105 187.500986,276.374666 Z M214.431859,372.085487 C215.509564,371.464531 216.296212,370.440621 216.618516,369.239307 C216.94082,368.037993 216.772338,366.757828 216.150186,365.680813 C210.232713,355.456132 199.314563,349.160137 187.500986,349.160137 C175.68741,349.160137 164.76926,355.456132 158.851787,365.680813 C158.014652,367.131848 158.015225,368.919265 158.85329,370.369762 C159.691355,371.82026 161.23959,372.713473 162.91479,372.712936 C164.58999,372.712399 166.137653,371.818194 166.974788,370.36716 C171.217518,363.040641 179.042473,358.529708 187.508797,358.529708 C195.975121,358.529708 203.800077,363.040641 208.042806,370.36716 C209.335519,372.602139 212.192447,373.370506 214.431859,372.085487 L214.431859,372.085487 Z M169.130507,318.973558 C169.130507,316.130382 167.41782,313.567164 164.791068,312.479128 C162.164317,311.391092 159.140795,311.992508 157.130366,314.002937 C155.119938,316.013365 154.518522,319.036887 155.606558,321.663639 C156.694594,324.29039 159.257812,326.003078 162.100987,326.003078 C165.958886,325.977367 169.075156,322.847154 169.083644,318.989179 L169.130507,318.973558 Z M220.024233,318.973558 C220.024233,315.091261 216.877009,311.944038 212.994712,311.944038 C209.112416,311.944038 205.965192,315.091261 205.965192,318.973558 C205.965192,322.855855 209.112416,326.003078 212.994712,326.003078 C216.849067,325.968929 219.960427,322.843647 219.977369,318.989179 L220.024233,318.973558 Z M226.038377,340.843176 C226.038377,338.078231 221.914392,333.032598 220.492867,331.345513 C220.374145,331.205595 220.199921,331.124935 220.016422,331.124935 C219.832923,331.124935 219.658699,331.205595 219.539977,331.345513 C218.118452,333.016977 213.994466,338.078231 213.994466,340.843176 C214.157844,344.049919 216.80552,346.566134 220.016422,346.566134 C223.227324,346.566134 225.875,344.049919 226.038377,340.843176 Z" id="Shape"></path>
        </g>
    </g>
</svg>