<svg xmlns="http://www.w3.org/2000/svg" xmlns:xlink="http://www.w3.org/1999/xlink" viewBox="0 0 1242 2208"><defs><style>.cls-1{fill:none;}.cls-2{fill:#cf6914;}.cls-3,.cls-6,.cls-7{fill:#fff;}.cls-3,.cls-4{opacity:0.4;}.cls-5{clip-path:url(#clip-path);}.cls-7{font-size:100px;font-family:TeluguMN-Bold, Telugu MN;font-weight:700;}.cls-8{letter-spacing:0.26em;}</style><clipPath id="clip-path"><rect class="cls-1" x="-5.67" y="630.82" width="527.84" height="883.95"/></clipPath></defs><title>6 plus</title><g id="background"><rect class="cls-2" x="-5.67" width="1253.34" height="2212.29"/></g><g id="graphic"><path class="cls-3" d="M999.5,741.41a33,33,0,0,0-49.93-3.86L787.48,899.65a32.57,32.57,0,0,0-6,37.81c46.83,92.28,13.4,214.49-100,263.89a189.72,189.72,0,0,1-140.41-.71c-48.92-21.39-82.65-56-101.34-96-9.54-20.44-36.65-24.87-52.61-8.92L224.29,1258.49a33,33,0,0,0-3.62,42.28,459.69,459.69,0,0,0,51.76,62.06c187.41,187.41,491.26,187.41,678.67,0C1120.51,1193.42,1136.41,929.07,999.5,741.41ZM678.22,1202.87c-1.72.72-3.39,1.47-5.15,2.16C674.81,1204.33,676.51,1203.6,678.22,1202.87Zm-29.76,10.36-.74.19Zm-95.38-7.62c-4-1.49-7.82-3.15-11.64-4.81C545.2,1202.53,549.11,1204.09,553.08,1205.62Zm26.78,8.37c-1.63-.41-3.29-.78-4.9-1.22C576.57,1213.21,578.23,1213.57,579.86,1214Z"/><g class="cls-4"><g class="cls-5"><path class="cls-6" d="M-220.21,1529.12l-81.37-234.32a33.11,33.11,0,0,1,7.66-34.09L227,733.3a32.13,32.13,0,0,1,45.84,0L429.22,891.65a33.11,33.11,0,0,1,0,46.41l-595.94,603.37C-183.59,1558.52-212.29,1551.91-220.21,1529.12Z"/></g></g></g><g id="fonts"><text class="cls-7" transform="translate(391.78 712.38)"><tspan class="cls-8">parke</tspan><tspan x="402.73" y="0">y</tspan></text></g></svg>