<?xml version="1.0" encoding="UTF-8"?>
<svg width="18px" height="18px" viewBox="0 0 18 18" version="1.1" xmlns="http://www.w3.org/2000/svg" xmlns:xlink="http://www.w3.org/1999/xlink" style="background: #FFFFFF;">
    <!-- Generator: Sketch 63.1 (92452) - https://sketch.com -->
    <title>icon/search</title>
    <desc>Created with Sketch.</desc>
    <g id="icon/search" stroke="none" stroke-width="1" fill="none" fill-rule="evenodd">
        <rect fill="#FFFFFF" x="0" y="0" width="18" height="18"></rect>
        <path d="M17.6696931,16.1666431 L12.7415503,11.2365716 C13.6249269,10.0317335 14.0981483,8.57511287 14.0915503,7.08114307 C14.0746949,3.18138617 10.9204928,0.0225957082 7.02076455,7.16372052e-05 C5.15452475,-0.00837202237 3.36242061,0.729915798 2.04368225,2.05046545 C0.724943879,3.37101511 -0.0108834796,5.1641309 0.00012169314,7.03035735 C0.0169770355,10.9304693 3.17146695,14.0895475 7.07155026,14.1120716 C8.57160623,14.118573 10.0335486,13.6398281 11.2391931,12.7472859 L11.244336,12.7434288 L16.1679788,17.6696431 C16.4341845,17.9489176 16.8308491,18.0619613 17.2042837,17.9649751 C17.5777183,17.867989 17.8692454,17.5762123 17.9659119,17.2026948 C18.0625785,16.8291774 17.9491953,16.4326097 17.6696931,16.1666431 L17.6696931,16.1666431 Z M7.06640741,12.7003574 C3.9465112,12.6824101 1.4229603,10.155418 1.40926455,7.03550021 C1.40084388,5.54271241 1.9895542,4.10850787 3.04434626,3.05214617 C4.09913833,1.99578448 5.53246588,1.40494216 7.02526455,1.41114307 C10.1451608,1.42909033 12.6687117,3.95608244 12.6824074,7.07600021 C12.6908281,8.56878801 12.1021178,10.0029926 11.0473257,11.0593542 C9.99253363,12.1157159 8.55920608,12.7065583 7.06640741,12.7003574 Z" id="Search" fill="#757575"></path>
    </g>
</svg>