<?xml version="1.0" encoding="UTF-8"?>
<svg width="24px" height="24px" viewBox="0 0 24 24" version="1.1" xmlns="http://www.w3.org/2000/svg" xmlns:xlink="http://www.w3.org/1999/xlink">
    <!-- Generator: Sketch 63.1 (92452) - https://sketch.com -->
    <title>icon/tab/inbox</title>
    <desc>Created with Sketch.</desc>
    <g id="icon/tab/inbox" stroke="none" stroke-width="1" fill="none" fill-rule="evenodd">
        <path d="M18.7705263,2 C19.2505263,2 19.68,2.27777778 19.8315789,2.71759259 L19.8315789,2.71759259 L23.9494737,12.2680312 C23.9747368,12.3606238 24,12.4532164 24,12.5689571 L24,12.5689571 L24,20.9814815 C24,21.537037 23.4947368,22 22.8884211,22 L22.8884211,22 L1.11157895,22 C0.505263158,22 -1.77635684e-15,21.537037 -1.77635684e-15,20.9814815 L-1.77635684e-15,20.9814815 L-1.77635684e-15,12.545809 C-1.77635684e-15,12.4532164 0.0252631579,12.3606238 0.0505263158,12.2680312 L0.0505263158,12.2680312 L4.16842105,2.71759259 C4.32,2.30092593 4.74947368,2 5.22947368,2 L5.22947368,2 Z M17.9510326,4.49529086 L6.07423053,4.49529086 L3,12.7080332 L7.4180865,12.7080332 C7.62778506,12.7080332 7.77457405,12.8542321 7.77457405,13.0187058 L7.77457405,13.0187058 L8.77457405,16.0559865 C8.77457405,16.238735 8.9423329,16.366659 9.1310616,16.366659 L9.1310616,16.366659 L14.8269987,16.366659 C15.0366972,16.366659 15.1834862,16.2204601 15.1834862,16.0559865 L15.1834862,16.0559865 L16.1834862,13.0187058 C16.1834862,12.8359572 16.3512451,12.7080332 16.5399738,12.7080332 L16.5399738,12.7080332 L21,12.7080332 L17.9510326,4.49529086 Z" id="Inbox" fill="#BDBDBD"></path>
    </g>
</svg>