<?xml version="1.0" encoding="UTF-8"?>
<svg width="24px" height="24px" viewBox="0 0 24 24" version="1.1" xmlns="http://www.w3.org/2000/svg" xmlns:xlink="http://www.w3.org/1999/xlink">
    <!-- Generator: Sketch 63.1 (92452) - https://sketch.com -->
    <title>icon/tab/list</title>
    <desc>Created with Sketch.</desc>
    <g id="icon/tab/list" stroke="none" stroke-width="1" fill="none" fill-rule="evenodd">
        <path d="M11.9970851,0 C13.4908782,0 14.8779718,0.602739726 15.9449668,1.67123288 C16.7985629,2.54794521 17.3587353,3.64383562 17.5187846,4.87671233 C17.8122082,4.82191781 18.1323067,4.79452055 18.4524053,4.79452055 C19.599425,4.79452055 20.7197698,5.17808219 21.6800653,5.8630137 C22.6670358,6.57534247 23.3605826,7.56164384 23.7340309,8.73972603 C24.1875038,10.1917808 24.0541294,11.7260274 23.3872575,13.0958904 C22.827085,14.2191781 21.973489,15.0958904 20.8531442,15.6164384 C21.4133166,16.7123288 21.6000407,17.9452055 21.4133166,19.1780822 C21.1999176,20.6849315 20.3996713,22 19.1993018,22.9041096 C18.2656811,23.6164384 17.1186614,24 15.9449668,24 C15.0913708,24 14.2377747,23.7808219 13.4642033,23.3972603 C12.9040309,23.1232877 12.3972082,22.739726 11.9704102,22.2739726 C11.5436122,22.739726 11.0367895,23.1232877 10.4766171,23.3972603 C9.70304566,23.7808219 8.8494496,24 7.99585355,24 C6.82215897,24 5.70181414,23.6164384 4.74151858,22.9041096 C3.54114912,22 2.76757769,20.6849315 2.5275038,19.1780822 C2.34077966,17.9452055 2.5275038,16.7123288 3.08767621,15.6164384 C2.02068114,15.0684932 1.16708508,14.2191781 0.606912671,13.0958904 C-0.0599592492,11.7534247 -0.193333633,10.1917808 0.286814149,8.73972603 C0.660262424,7.56164384 1.3804841,6.57534247 2.34077966,5.8630137 C3.27440035,5.15068493 4.39474518,4.79452055 5.56843976,4.79452055 C5.88853828,4.79452055 6.18196192,4.82191781 6.50206044,4.87671233 C6.6621097,3.67123288 7.19560724,2.54794521 8.07587818,1.67123288 C9.11619837,0.602739726 10.503292,0 11.9970851,0 Z M12.0035969,5.26321678 C11.5617691,5.26321678 11.2035969,5.62138898 11.2035969,6.06321678 L11.2035969,6.06321678 L11.203,9.94421678 L9.684,11.1562168 L6.06746419,9.86583607 C6.05315604,9.86072901 6.0387095,9.85601829 6.02414112,9.85170929 C5.58736469,9.72252069 5.12855938,9.9718699 4.99937079,10.4086463 C4.86068381,10.877536 5.11252293,11.3730825 5.573037,11.5374553 L5.573037,11.5374553 L9.295,12.8652168 L9.821,14.6452168 L7.38204724,18.3325137 C7.1234285,18.7235436 7.20603787,19.2473106 7.57245584,19.5397588 C7.59007003,19.5538171 7.608303,19.5670822 7.62710031,19.5795143 C7.97593916,19.8102288 8.44575996,19.7144701 8.67647443,19.3656312 L8.67647443,19.3656312 L11.123,15.6642168 L13.043,15.6642168 L15.4907193,19.3656312 C15.5031514,19.3844285 15.5164165,19.4026615 15.5304748,19.4202757 C15.7913686,19.7471581 16.2678554,19.8006525 16.5947379,19.5397588 C16.9611558,19.2473106 17.0437652,18.7235436 16.7851465,18.3325137 L16.7851465,18.3325137 L14.235,14.4762168 L14.712,12.8652168 L18.4341567,11.5374553 C18.8946708,11.3730825 19.1465099,10.877536 19.0078229,10.4086463 C19.0035139,10.394078 18.9988032,10.3796314 18.9936961,10.3653233 C18.8405809,9.93634884 18.3687039,9.7127208 17.9397295,9.86583607 L17.9397295,9.86583607 L14.322,11.1562168 L12.803,9.94421678 L12.8035969,6.06321678 C12.8035969,5.62138898 12.4454247,5.26321678 12.0035969,5.26321678 Z" id="Combined-Shape" fill="#BDBDBD"></path>
    </g>
</svg>