<?xml version="1.0" encoding="UTF-8"?>
<svg width="24px" height="24px" viewBox="0 0 24 24" version="1.1" xmlns="http://www.w3.org/2000/svg" xmlns:xlink="http://www.w3.org/1999/xlink">
    <!-- Generator: Sketch 63.1 (92452) - https://sketch.com -->
    <title>icon/tab/lock</title>
    <desc>Created with Sketch.</desc>
    <g id="icon/tab/lock" stroke="none" stroke-width="1" fill="none" fill-rule="evenodd">
        <path d="M12,0 C15.7854517,0 18.8690987,3.3386482 18.995941,7.51038917 L19,7.77777778 L19,10 L20,10 C21.1045695,10 22,10.8954305 22,12 L22,22 C22,23.1045695 21.1045695,24 20,24 L4,24 C2.8954305,24 2,23.1045695 2,22 L2,12 C2,10.8954305 2.8954305,10 4,10 L5,10 L5,7.77777778 L5.00405902,7.51038917 C5.13090132,3.3386482 8.21454828,0 12,0 Z M12,3.33333333 C9.90982134,3.33333333 8.18577958,5.11867964 8.01524609,7.34938425 L8.00363237,7.56660421 L8,7.77777778 L8,10 L16,10 L16.0004266,7.83399282 L15.9976515,7.62293653 C15.9250679,5.23572108 14.1576038,3.33333333 12,3.33333333 Z" id="Lock" fill="#BDBDBD"></path>
    </g>
</svg>