<?xml version="1.0" encoding="UTF-8"?>
<svg width="24px" height="24px" viewBox="0 0 24 24" version="1.1" xmlns="http://www.w3.org/2000/svg" xmlns:xlink="http://www.w3.org/1999/xlink">
    <!-- Generator: Sketch 63.1 (92452) - https://sketch.com -->
    <title>icon/tab/map</title>
    <desc>Created with Sketch.</desc>
    <g id="icon/tab/map" stroke="none" stroke-width="1" fill="none" fill-rule="evenodd">
        <path d="M12,0 C7,0 3,3.89055654 3,8.75375221 C3,10.115447 3.53333333,11.5419844 4.06666667,12.773994 C5.73333333,16.2106522 7.93333333,19.5824679 9.93333333,22.889441 C10.8666667,24.380821 13.1333333,24.380821 14.0666667,22.8245984 C16,19.6473105 18.0666667,16.4051801 19.7333333,13.098207 C20.4,11.7365122 21,10.2451322 21,8.75375221 C21,3.89055654 16.9333333,0 12,0 Z M11.9553991,5 C14.1600479,5 15.9107983,6.75075044 15.9107983,8.95539915 C15.9107983,11.1600479 14.1600479,12.9107983 11.9553991,12.9107983 C9.75075044,12.9107983 8,11.1600479 8,8.95539915 C8,6.75075044 9.75075044,5 11.9553991,5 Z" id="Map" fill="#BDBDBD"></path>
    </g>
</svg>