<?xml version="1.0" encoding="UTF-8"?>
<svg width="22px" height="22px" viewBox="0 0 22 22" version="1.1" xmlns="http://www.w3.org/2000/svg" xmlns:xlink="http://www.w3.org/1999/xlink">
    <!-- Generator: Sketch 63.1 (92452) - https://sketch.com -->
    <title>icon/nav/close</title>
    <desc>Created with Sketch.</desc>
    <g id="icon/nav/close" stroke="none" stroke-width="1" fill="none" fill-rule="evenodd">
        <path d="M11,1 C11.5522847,1 12,1.44771525 12,2 L12,10 L20,10 C20.5522847,10 21,10.4477153 21,11 C21,11.5522847 20.5522847,12 20,12 L12,12 L12,20 C12,20.5522847 11.5522847,21 11,21 C10.4477153,21 10,20.5522847 10,20 L10,12 L2,12 C1.44771525,12 1,11.5522847 1,11 C1,10.4477153 1.44771525,10 2,10 L10,10 L10,2 C10,1.44771525 10.4477153,1 11,1 Z" id="Combined-Shape" fill="#F57C00" transform="translate(11.000000, 11.000000) rotate(45.000000) translate(-11.000000, -11.000000) "></path>
    </g>
</svg>