<?xml version="1.0" encoding="UTF-8"?>
<svg width="22px" height="22px" viewBox="0 0 22 22" version="1.1" xmlns="http://www.w3.org/2000/svg" xmlns:xlink="http://www.w3.org/1999/xlink">
    <!-- Generator: Sketch 63.1 (92452) - https://sketch.com -->
    <title>icon/nav/edit</title>
    <desc>Created with Sketch.</desc>
    <g id="icon/nav/edit" stroke="none" stroke-width="1" fill="none" fill-rule="evenodd">
        <path d="M12.750306,2.82040318 C13.1909425,2.82040318 13.5826193,3.16249236 13.5826193,3.6511912 C13.5826193,4.09102016 13.1909425,4.48197923 12.750306,4.48197923 L3.88861689,4.48197923 C3.20318237,4.48197923 2.66462668,5.01954795 2.66462668,5.70372633 L2.66462668,18.1166768 C2.66462668,18.8008552 3.20318237,19.3872938 3.88861689,19.3872938 L16.3243574,19.3872938 C17.0097919,19.3872938 17.5973072,18.8008552 17.5973072,18.1166768 L17.5973072,9.22235797 C17.5973072,8.78252902 17.9400245,8.39156995 18.4296206,8.39156995 C18.870257,8.39156995 19.2619339,8.78252902 19.2619339,9.22235797 L19.2619339,18.1166768 C19.2619339,19.729383 17.9400245,21 16.3243574,21 L3.88861689,21 C2.32190942,21 1,19.729383 1,18.1166768 L1,5.70372633 C1,4.13989004 2.32190942,2.82040318 3.88861689,2.82040318 L12.750306,2.82040318 Z M15.5410037,3.79780086 L18.2337821,6.48564447 L9.02937576,15.6731827 L5.60220318,16.4062309 L6.33659731,12.985339 L15.5410037,3.79780086 Z M18.2337821,1.10995724 C18.3317013,0.963347587 18.5764994,0.963347587 18.6744186,1.10995724 L18.6744186,1.10995724 L20.9265606,3.3579719 C21.0244798,3.45571167 21.0244798,3.6511912 20.9265606,3.79780086 L20.9265606,3.79780086 L18.9192166,5.8014661 L16.2264382,3.11362248 Z" id="Combined-Shape" fill="#F57C00"></path>
    </g>
</svg>