<?xml version="1.0" encoding="UTF-8"?>
<svg width="22px" height="22px" viewBox="0 0 22 22" version="1.1" xmlns="http://www.w3.org/2000/svg" xmlns:xlink="http://www.w3.org/1999/xlink">
    <!-- Generator: Sketch 63.1 (92452) - https://sketch.com -->
    <title>icon/nav/filter</title>
    <desc>Created with Sketch.</desc>
    <g id="icon/nav/filter" stroke="none" stroke-width="1" fill="none" fill-rule="evenodd">
        <path d="M11,16 C12.3062521,16 13.4175144,16.8348501 13.8293257,18.0000889 L21,18 C21.5522847,18 22,18.4477153 22,19 C22,19.5522847 21.5522847,20 21,20 L13.8289758,20.0009007 C13.4168852,21.1656226 12.3058822,22 11,22 C9.69411778,22 8.58311485,21.1656226 8.17102423,20.0009007 L1,20 C0.44771525,20 6.76353751e-17,19.5522847 0,19 C-6.76353751e-17,18.4477153 0.44771525,18 1,18 L8.17067428,18.0000889 C8.58248558,16.8348501 9.69374794,16 11,16 Z M11,17 C9.8954305,17 9,17.8954305 9,19 C9,20.1045695 9.8954305,21 11,21 C12.1045695,21 13,20.1045695 13,19 C13,17.8954305 12.1045695,17 11,17 Z M16,8 C17.3062521,8 18.4175144,8.8348501 18.8293257,10.0000889 L21,10 C21.5522847,10 22,10.4477153 22,11 C22,11.5522847 21.5522847,12 21,12 L18.8289758,12.0009007 C18.4168852,13.1656226 17.3058822,14 16,14 C14.6941178,14 13.5831148,13.1656226 13.1710242,12.0009007 L1,12 C0.44771525,12 6.76353751e-17,11.5522847 0,11 C-6.76353751e-17,10.4477153 0.44771525,10 1,10 L13.1706743,10.0000889 C13.5824856,8.8348501 14.6937479,8 16,8 Z M16,9 C14.8954305,9 14,9.8954305 14,11 C14,12.1045695 14.8954305,13 16,13 C17.1045695,13 18,12.1045695 18,11 C18,9.8954305 17.1045695,9 16,9 Z M6,0 C7.30625206,0 8.41751442,0.834850101 8.82932572,2.00008893 L21,2 C21.5522847,2 22,2.44771525 22,3 C22,3.55228475 21.5522847,4 21,4 L8.82897577,4.00090072 C8.41688515,5.16562257 7.30588222,6 6,6 C4.69411778,6 3.58311485,5.16562257 3.17102423,4.00090072 L1,4 C0.44771525,4 6.76353751e-17,3.55228475 0,3 C-6.76353751e-17,2.44771525 0.44771525,2 1,2 L3.17067428,2.00008893 C3.58248558,0.834850101 4.69374794,0 6,0 Z M6,1 C4.8954305,1 4,1.8954305 4,3 C4,4.1045695 4.8954305,5 6,5 C7.1045695,5 8,4.1045695 8,3 C8,1.8954305 7.1045695,1 6,1 Z" id="Combined-Shape" fill="#F57C00"></path>
    </g>
</svg>